PathFileType	4	(X/Y/Z)	SUBJ36_2_walk_RCNL2025.trc
DataRate	CameraRate	NumFrames	NumMarkers	Units	OrigDataRate	OrigDataStartFrame	OrigNumFrames
100	100	8	25	mm	100	150	399
Frame#	Time	R_Shoulder			L_Shoulder			C7			J_Notch			R_Elbow			L_Elbow			R_Wrist			L_Wrist			R_Asis			L_Asis			Sacral			Thoracic			Sternum			R_Thigh_Lateral			R_Knee_Lateral			R_Shank_Lateral			R_Ankle_Lateral			R_Heel			R_Toe			L_Thigh_Lateral			L_Knee_Lateral			L_Shank_Lateral			L_Ankle_Lateral			L_Heel			L_Toe		
		X1	Y1	Z1	X2	Y2	Z2	X3	Y3	Z3	X4	Y4	Z4	X5	Y5	Z5	X6	Y6	Z6	X7	Y7	Z7	X8	Y8	Z8	X9	Y9	Z9	X10	Y10	Z10	X11	Y11	Z11	X12	Y12	Z12	X13	Y13	Z13	X14	Y14	Z14	X15	Y15	Z15	X16	Y16	Z16	X17	Y17	Z17	X18	Y18	Z18	X19	Y19	Z19	X20	Y20	Z20	X21	Y21	Z21	X22	Y22	Z22	X23	Y23	Z23	X24	Y24	Z24	X25	Y25	Z25
150	1.49000000	30.569157	1342.349121	-199.903564	51.271866	1311.061279	-546.000732	-22.857494	1398.965820	-368.762299	110.563652	1289.625977	-359.495544	-75.742584	1036.571899	-128.119553	27.734083	994.626038	-594.596497	-47.986457	802.652863	-79.310108	162.306396	804.127289	-563.143555	89.602341	908.656494	-237.044312	99.530754	904.383728	-467.814728	-123.542252	892.065979	-346.035461	-99.978943	1141.854614	-360.202881	140.359436	1108.727417	-343.163727	144.060852	513.576050	-176.795502	167.698608	456.474335	-220.221985	153.268600	250.497879	-181.165436	177.512268	81.030144	-248.209961	139.221970	50.526943	-298.992432	298.747101	66.452095	-257.742584	-78.585648	528.348755	-523.953064	-92.241631	456.388214	-448.647766	-166.117874	251.488815	-464.236847	-186.615295	86.772667	-381.866760	-221.249054	63.306580	-323.179932	-59.598862	47.009697	-373.789581
151	1.50000000	41.139652	1340.582642	-199.173477	61.695667	1309.410278	-545.308716	-12.359303	1397.328613	-368.006989	121.083183	1287.965942	-358.848450	-65.016479	1034.720703	-127.671684	40.735630	992.811951	-593.416931	-37.891964	800.764801	-78.738087	177.083229	803.733429	-561.246582	100.459908	906.971069	-236.078262	110.424973	903.145752	-467.029968	-112.543228	890.617188	-344.966766	-89.426971	1140.216675	-359.238831	150.880859	1107.025146	-342.740692	152.064850	510.261871	-177.342514	177.592392	454.083130	-220.779419	175.584732	247.263992	-181.627914	208.885284	78.709679	-249.119095	171.116592	46.340771	-299.267761	330.872742	69.666885	-261.520233	-71.741608	528.703003	-523.830261	-86.322769	456.869659	-448.550201	-163.139450	253.011307	-464.467712	-185.785477	88.359093	-382.270203	-220.823959	65.416702	-323.659149	-59.306644	47.061424	-373.919495
152	1.51000000	51.791203	1338.854614	-198.338104	72.168968	1307.817871	-544.519287	-1.802460	1395.725220	-367.137726	131.681824	1286.364990	-358.107574	-54.065628	1032.857300	-127.133522	53.669819	991.072388	-592.137878	-27.454495	798.862427	-78.150940	191.643433	803.309509	-559.346680	111.463737	905.289612	-235.068481	121.495613	901.896179	-466.170380	-101.385254	889.186340	-343.914642	-78.756477	1138.583374	-358.185516	161.527359	1105.396851	-342.221527	159.963287	506.789825	-178.018265	187.437851	451.745117	-221.494141	197.270248	244.723145	-182.128586	238.694031	77.294319	-250.086380	201.374619	43.181210	-299.585266	361.137360	73.287117	-265.304688	-64.240929	528.918213	-523.869202	-79.930962	457.284302	-448.587677	-159.741806	254.555435	-464.918549	-184.873428	90.068703	-382.894196	-220.382309	67.698090	-324.391541	-58.975578	47.140972	-374.104248
153	1.52000000	62.531887	1337.185669	-197.393784	82.709457	1306.305786	-543.627441	8.820833	1394.170410	-366.152679	142.370728	1284.842285	-357.267639	-42.897457	1031.006226	-126.500275	66.521980	989.428406	-590.764038	-16.664156	796.970001	-77.545185	205.978027	802.868042	-557.453003	122.629234	903.638794	-234.024231	132.749542	900.642822	-465.248352	-90.057663	887.786194	-342.877197	-67.951401	1136.966919	-357.048950	172.314056	1103.860962	-341.596710	167.989288	503.308472	-178.786392	197.389847	449.531525	-222.333862	218.170410	242.801773	-182.671707	266.616241	76.604385	-251.121872	229.677551	40.909557	-299.991150	389.272369	77.036842	-269.002319	-56.167427	529.023987	-524.033630	-73.086342	457.638214	-448.737885	-155.932037	256.127838	-465.558289	-183.869385	91.915688	-383.716156	-219.904877	70.167694	-325.349487	-58.595383	47.244144	-374.338745
154	1.53000000	73.370842	1335.593384	-196.337204	93.335136	1304.892578	-542.627502	19.518452	1392.677002	-365.049622	153.161316	1283.415405	-356.324158	-31.519526	1029.188354	-125.768188	79.273758	987.898315	-589.301453	-5.516158	795.108032	-76.917374	220.078102	802.422943	-555.577820	133.973709	902.038208	-232.961609	144.190018	899.392700	-464.282745	-78.551628	886.432983	-341.850891	-56.994595	1135.379395	-355.834351	183.255432	1102.434082	-340.859314	176.380722	499.969360	-179.597870	207.587265	447.494904	-223.255219	238.117462	241.391907	-183.273285	292.363708	76.426445	-252.237289	255.738586	39.358410	-300.532135	415.049561	80.617996	-272.528076	-47.617863	529.058472	-524.277710	-65.808716	457.937622	-448.970367	-151.732452	257.741455	-466.344299	-182.761368	93.914688	-384.705963	-219.367355	72.841782	-326.496277	-58.156136	47.363548	-374.617126
155	1.54000000	84.317795	1334.091064	-195.164917	104.062874	1303.593628	-541.513367	30.298426	1391.256592	-363.825195	164.064804	1282.099854	-355.273438	-19.938787	1027.419678	-124.934921	91.904198	986.497192	-587.757690	5.989479	793.293182	-76.264038	233.934937	801.989105	-553.736023	145.515701	900.501526	-231.902191	155.817184	898.151245	-463.297119	-66.860619	885.146240	-340.831207	-45.868153	1133.831909	-354.545044	194.365051	1101.130737	-340.005219	185.359695	496.913849	-180.397079	218.139221	445.666168	-224.208908	256.941376	240.361450	-183.957779	315.701355	76.534042	-253.440033	279.319611	38.349445	-301.245728	438.295349	83.731453	-275.805511	-38.688393	529.061951	-524.551086	-58.112534	458.186554	-449.250336	-147.173981	259.413544	-467.227203	-181.534241	96.079941	-385.828979	-218.739792	75.735268	-327.789886	-57.648960	47.488422	-374.933258
156	1.55000000	95.382622	1332.688599	-193.873230	114.906975	1302.422119	-540.278992	41.169186	1389.920654	-362.474854	175.091644	1280.910278	-354.112427	-8.160968	1025.712036	-123.999664	104.391441	985.237244	-586.141968	17.848912	791.538208	-75.581615	247.539963	801.581970	-551.944000	157.273468	899.038940	-230.870560	167.628586	896.922791	-462.317017	-54.981091	883.947815	-339.813324	-34.554420	1132.336426	-353.181946	205.655106	1099.964722	-339.033569	195.110031	494.260406	-181.129013	229.115189	444.055939	-225.145309	274.484497	239.569794	-184.752625	336.464417	76.711807	-254.727783	300.247101	37.713409	-302.152069	458.902496	86.100525	-278.767212	-29.461220	529.069519	-524.804321	-50.002357	458.384918	-449.542511	-142.287918	261.163361	-468.155945	-180.168198	98.424942	-387.049164	-217.985275	78.861786	-329.186279	-57.066753	47.604858	-375.281189
157	1.56000000	106.575027	1331.392578	-192.458603	125.878014	1301.388794	-538.919373	52.139847	1388.682007	-360.993042	186.251038	1279.860474	-352.838928	3.809883	1024.073486	-122.963135	116.714828	984.128967	-584.464600	30.055811	789.853180	-74.866520	260.884514	801.217010	-550.218170	169.262650	897.660217	-229.891281	179.619690	895.710632	-461.366577	-42.913334	882.860413	-338.793518	-23.037905	1130.906982	-351.743958	217.135605	1098.949341	-337.946808	205.756653	492.095428	-181.745911	240.541382	442.660126	-226.018967	290.619507	238.886414	-185.680954	354.572021	76.779335	-256.084991	318.425720	37.308983	-303.248016	476.838562	87.495255	-281.356781	-19.993284	529.104675	-524.993958	-41.469250	458.527435	-449.814758	-137.097534	263.010193	-469.082489	-178.636581	100.962601	-388.331512	-217.058334	82.234604	-330.642181	-56.404789	47.696594	-375.654694
